<svg width="359" height="350" viewBox="0 0 359 350" fill="none" xmlns="http://www.w3.org/2000/svg">
<g clip-path="url(#clip0)">
<path d="M227.629 78.7139H131.013C128.811 78.7166 126.7 79.5924 125.143 81.1492C123.586 82.7061 122.711 84.8169 122.708 87.0186V301.75L121.601 302.088L97.899 309.346C96.7757 309.688 95.5624 309.571 94.5255 309.02C93.4886 308.469 92.7127 307.529 92.3682 306.406L21.8669 76.1173C21.5238 74.994 21.6407 73.7804 22.192 72.7433C22.7432 71.7062 23.6837 70.9304 24.8067 70.5864L61.3308 59.4027L167.215 26.9924L203.739 15.8087C204.295 15.6377 204.879 15.5779 205.458 15.6328C206.037 15.6877 206.6 15.8563 207.113 16.1289C207.627 16.4014 208.082 16.7726 208.452 17.2212C208.822 17.6697 209.1 18.1869 209.27 18.743L227.291 77.6066L227.629 78.7139Z" fill="#F2F2F2"/>
<path d="M248.713 77.6084L226.994 6.66431C226.632 5.48225 226.042 4.38298 225.255 3.42931C224.469 2.47564 223.502 1.68628 222.411 1.10631C221.319 0.526344 220.124 0.167141 218.894 0.049243C217.663 -0.068655 216.422 0.0570615 215.24 0.419196L163.889 16.1372L58.0104 48.5531L6.6598 64.2766C4.27433 65.0091 2.27693 66.6582 1.10605 68.8619C-0.0648308 71.0655 -0.313543 73.6437 0.414519 76.0305L74.6473 318.488C75.2387 320.415 76.4321 322.102 78.0523 323.3C79.6726 324.499 81.6343 325.147 83.6497 325.149C84.5825 325.149 85.5101 325.009 86.4012 324.734L121.602 313.96L122.709 313.616V312.459L121.602 312.797L86.0746 323.676C83.969 324.318 81.6948 324.098 79.7508 323.066C77.8068 322.033 76.3517 320.271 75.7048 318.167L1.47774 75.7039C1.15723 74.6613 1.04553 73.5658 1.14902 72.48C1.25251 71.3942 1.56915 70.3395 2.08084 69.3762C2.59253 68.413 3.28922 67.5602 4.13098 66.8665C4.97274 66.1729 5.94305 65.6522 6.98635 65.3341L58.3369 49.6106L164.216 17.2002L215.567 1.47667C216.358 1.23517 217.181 1.11203 218.008 1.11126C219.784 1.11525 221.511 1.68769 222.938 2.74475C224.365 3.80181 225.416 5.28793 225.937 6.98544L247.556 77.6084L247.9 78.7157H249.051L248.713 77.6084Z" fill="#3F3D56"/>
<path d="M67.9216 70.7674C66.8546 70.7666 65.8158 70.4239 64.9577 69.7896C64.0997 69.1552 63.4676 68.2625 63.154 67.2425L56.0229 43.9497C55.8312 43.324 55.7647 42.6667 55.8272 42.0153C55.8896 41.3639 56.0798 40.7312 56.3868 40.1533C56.6937 39.5754 57.1116 39.0637 57.6164 38.6473C58.1212 38.2309 58.7031 37.918 59.3288 37.7266L156.737 7.90516C158 7.51956 159.365 7.65107 160.532 8.27082C161.699 8.89057 162.572 9.94792 162.96 11.2108L170.091 34.5039C170.476 35.7675 170.345 37.1324 169.725 38.2991C169.105 39.4658 168.048 40.3391 166.785 40.7273L69.3774 70.5487C68.9057 70.6935 68.4151 70.7672 67.9216 70.7674V70.7674Z" fill="#6C63FF"/>
<path d="M105.277 24.889C111.393 24.889 116.35 19.9315 116.35 13.8161C116.35 7.70067 111.393 2.74316 105.277 2.74316C99.1621 2.74316 94.2046 7.70067 94.2046 13.8161C94.2046 19.9315 99.1621 24.889 105.277 24.889Z" fill="#6C63FF"/>
<path d="M105.278 20.8279C109.15 20.8279 112.289 17.6886 112.289 13.8162C112.289 9.94369 109.15 6.80444 105.278 6.80444C101.405 6.80444 98.2659 9.94369 98.2659 13.8162C98.2659 17.6886 101.405 20.8279 105.278 20.8279Z" fill="white"/>
<path d="M333.647 322.318H146.515C145.267 322.316 144.071 321.82 143.189 320.938C142.307 320.056 141.81 318.859 141.809 317.612V93.3854C141.81 92.1378 142.306 90.9416 143.189 90.0593C144.071 89.1771 145.267 88.6808 146.515 88.6794H333.647C334.895 88.6809 336.091 89.1772 336.973 90.0594C337.855 90.9416 338.352 92.1378 338.353 93.3854V317.612C338.351 318.859 337.855 320.056 336.973 320.938C336.091 321.82 334.895 322.316 333.647 322.318V322.318Z" fill="#E6E6E6"/>
<path d="M247.555 77.6067H131.013C128.517 77.6102 126.126 78.603 124.361 80.3673C122.597 82.1316 121.604 84.5235 121.601 87.0187V312.795L122.708 312.457V87.0187C122.711 84.8169 123.586 82.7062 125.143 81.1493C126.7 79.5925 128.811 78.7167 131.013 78.714H247.898L247.555 77.6067ZM349.149 77.6067H131.013C128.517 77.6102 126.126 78.603 124.361 80.3673C122.597 82.1316 121.604 84.5235 121.601 87.0187V340.588C121.604 343.083 122.597 345.475 124.361 347.24C126.126 349.004 128.517 349.997 131.013 350H349.149C351.644 349.997 354.036 349.004 355.8 347.24C357.564 345.475 358.557 343.083 358.561 340.588V87.0187C358.557 84.5235 357.564 82.1316 355.8 80.3673C354.036 78.603 351.644 77.6102 349.149 77.6067V77.6067ZM357.453 340.588C357.451 342.79 356.575 344.901 355.018 346.457C353.461 348.014 351.35 348.89 349.149 348.893H131.013C128.811 348.89 126.7 348.014 125.143 346.457C123.586 344.901 122.711 342.79 122.708 340.588V87.0187C122.711 84.8169 123.586 82.7062 125.143 81.1493C126.7 79.5925 128.811 78.7167 131.013 78.714H349.149C351.35 78.7167 353.461 79.5925 355.018 81.1493C356.575 82.7062 357.451 84.8169 357.453 87.0187V340.588Z" fill="#3F3D56"/>
<path d="M291.016 101.967H189.145C187.824 101.965 186.558 101.44 185.624 100.506C184.69 99.5716 184.164 98.3051 184.163 96.9841V72.6237C184.164 71.3026 184.69 70.0361 185.624 69.1019C186.558 68.1678 187.824 67.6424 189.145 67.6409H291.016C292.337 67.6424 293.604 68.1678 294.538 69.1019C295.472 70.0361 295.997 71.3026 295.999 72.6237V96.9841C295.997 98.3051 295.472 99.5716 294.538 100.506C293.604 101.44 292.337 101.965 291.016 101.967V101.967Z" fill="#6C63FF"/>
<path d="M240.081 69.3018C246.196 69.3018 251.154 64.3443 251.154 58.2289C251.154 52.1135 246.196 47.156 240.081 47.156C233.965 47.156 229.008 52.1135 229.008 58.2289C229.008 64.3443 233.965 69.3018 240.081 69.3018Z" fill="#6C63FF"/>
<path d="M240.081 64.9735C243.805 64.9735 246.825 61.9539 246.825 58.2291C246.825 54.5042 243.805 51.4846 240.081 51.4846C236.356 51.4846 233.336 54.5042 233.336 58.2291C233.336 61.9539 236.356 64.9735 240.081 64.9735Z" fill="white"/>
</g>
<defs>
<clipPath id="clip0">
<rect width="358.561" height="350" fill="white"/>
</clipPath>
</defs>
</svg>
