<svg width="803" height="545" viewBox="0 0 803 545" fill="none" xmlns="http://www.w3.org/2000/svg">
<path d="M617.852 406.324C650.871 318.454 640.883 220.338 598.296 144.983L152.51 210.684L579.716 115.916C399.667 -123.072 49.2271 35.4457 83.0077 337.184L617.852 406.324Z" fill="#E6E6E6"/>
<path d="M637.516 309.196H69.5773V497.44H637.516V309.196Z" fill="#C9CAD9" fill-opacity="0.95"/>
<path d="M227.969 286.237C233.065 290.449 234.928 291.809 236.014 291.636C288.59 307.933 242.499 327.031 216.953 294.612L227.969 286.237Z" fill="#FFB8B8"/>
<path d="M54.4781 458.411V496.673L80.3585 495.142L73.17 455.35L54.4781 458.411Z" fill="#FFB8B8"/>
<path d="M198.266 458.411V496.673L172.384 495.142L179.574 455.35L198.266 458.411Z" fill="#FFB8B8"/>
<path d="M119.182 260.98L158.003 259.449C247.558 359.382 213.69 336.589 211.202 473.708L163.754 458.404L173.819 363.518C173.824 363.514 176.474 361.634 174.271 361.591C160.496 366.63 150.445 304.242 120.619 311.484C86.6798 309.755 81.1546 363.346 67.4201 363.518L77.4849 458.404L30.0369 473.708C24.7244 323.028 -1.31223 357.067 83.2362 259.449L119.182 260.98Z" fill="#2F2E41"/>
<path d="M61.668 484.429C61.668 484.429 55.9167 472.185 48.7276 478.307C41.5385 484.428 24.2846 502.794 24.2846 502.794C24.2846 502.794 -17.4122 522.689 8.46861 534.933C34.3494 547.176 55.9167 518.098 55.9167 518.098C80.5678 512.626 94.7867 509.123 81.7138 480.503C74.2918 483.921 63.7886 487.879 61.668 484.429Z" fill="#2F2E41"/>
<path d="M191.07 484.429C191.07 484.429 196.822 472.185 204.011 478.307C211.2 484.428 228.454 502.794 228.454 502.794C228.454 502.794 270.15 522.689 244.27 534.933C218.389 547.176 196.822 518.098 196.822 518.098C172.17 512.626 157.952 509.123 171.024 480.503C178.446 483.921 188.95 487.879 191.07 484.429Z" fill="#2F2E41"/>
<path d="M158.004 88.0449C155.866 126.144 107.015 122.789 106.242 88.0446C108.381 49.9463 157.231 53.3005 158.004 88.0449Z" fill="#FFB8B8"/>
<path d="M120.617 107.938C133.195 148.403 103.498 126.372 145.06 158.442L160.876 124.773C160.876 124.773 149.373 120.181 150.811 103.346L120.617 107.938Z" fill="#FFB8B8"/>
<path d="M198.264 130.898L155.403 120.485C156.608 147.993 129.028 142.457 124.216 128.619L83.2376 153.854C100.437 222.039 96.0784 224.853 73.1728 268.636C64.4311 277.133 77.5045 282.003 88.8856 277.354C97.5662 271.651 101.975 266.583 111.276 267.873C155.228 277.614 191.817 279.913 197.607 276.107C199.679 272.95 197.547 131.446 198.264 130.898Z" fill="#575A89"/>
<path d="M186.755 133.953C188.193 133.953 195.6 130.246 195.6 130.246C217.148 129.86 231.609 284.14 232.766 288.526L218.388 299.239L195.382 236.492L186.755 133.953Z" fill="#575A89"/>
<path d="M86.1118 313.013C86.847 318.789 88.0981 383.652 109.928 353.353C112.792 331.247 103.055 324.649 100.49 309.952L86.1118 313.013Z" fill="#FFB8B8"/>
<path d="M91.8648 153.853L87.4594 151.254C75.6484 150.84 79.3707 184.119 74.3738 208.489C70.2915 236.881 71.4538 268.187 76.2433 310.041C76.6621 325.4 102.507 315.724 106.243 314.55C106.243 314.55 97.6161 251.801 101.93 241.088C106.243 230.375 91.8648 153.853 91.8648 153.853Z" fill="#575A89"/>
<path d="M156.873 61.3348C152.881 54.4332 146.631 49.3475 139.327 47.0565L133.962 51.6248L136.048 46.2964C134.294 46.0116 132.518 45.9024 130.745 45.9702L125.918 52.5761L127.916 46.1965C107.203 48.5637 94.949 73.8723 105.702 91.5852C107.361 86.1595 109.374 81.0683 111.033 75.6425C112.336 75.8317 113.657 75.8385 114.963 75.6629L116.981 70.6508L117.545 75.4509C123.799 74.8708 133.077 73.5974 139.007 72.4305L138.43 68.7482L141.88 71.8082C143.697 71.363 144.776 70.9593 144.687 70.6508C149.097 78.2185 153.467 83.0522 157.877 90.6199C159.551 79.9454 162.506 71.0724 156.873 61.3348Z" fill="#2F2E41"/>
<path d="M603.523 331.899H478.094V395.229H603.523V331.899Z" fill="white"/>
<path d="M579.807 345.165H501.815V352.759H579.807V345.165Z" fill="#E6E6E6"/>
<path d="M579.807 359.769H501.815V367.362H579.807V359.769Z" fill="#E6E6E6"/>
<path d="M579.807 374.372H501.815V381.966H579.807V374.372Z" fill="#E6E6E6"/>
<path d="M368.863 346.943L364.783 339.421L360.704 331.899L356.624 339.421L352.544 346.943H356.927V368.724H364.479V346.943H368.863Z" fill="white"/>
<path d="M645.334 515.037C663.887 515.037 678.928 496.091 678.928 472.721C678.928 449.351 663.887 430.406 645.334 430.406C626.78 430.406 611.739 449.351 611.739 472.721C611.739 496.091 626.78 515.037 645.334 515.037Z" fill="#3F3D56"/>
<path d="M651.426 495.127C659.648 495.127 666.314 485.096 666.314 472.722C666.314 460.349 659.648 450.318 651.426 450.318C643.203 450.318 636.537 460.349 636.537 472.722C636.537 485.096 643.203 495.127 651.426 495.127Z" fill="#E6E6E6"/>
<path d="M624.132 491.153L697.431 534.258L695.14 544.496L652.955 537.759L581.566 493.039L621.268 499.505L624.132 491.153Z" fill="#3F3D56"/>
<path d="M688.922 522.196L780.084 203.896L802.284 161.932L802.362 161.527C802.434 161.157 804.064 152.386 800.055 146.034C799.044 144.455 797.738 143.115 796.22 142.096C794.701 141.078 793.001 140.404 791.227 140.115C778.974 137.67 751.564 136.465 750.403 136.415L750.184 136.405L749.967 136.437C749.218 136.546 731.7 139.271 727.74 155.553L708.682 192.473L708.607 192.736L622.328 494.651L627.077 496.189L713.28 194.536L732.402 157.491L732.48 157.151C735.28 144.898 748.667 142.032 750.448 141.704C753.248 141.831 779.011 143.051 790.312 145.307C791.434 145.47 792.512 145.879 793.478 146.508C794.444 147.137 795.277 147.973 795.924 148.963C798.395 152.857 797.777 158.591 797.559 160.098L775.495 201.805L775.416 202.08L684.174 520.656L688.922 522.196Z" fill="#3F3D56"/>
<path d="M702.249 222.998L701.366 228.197L767.206 240.854L768.088 235.655L702.249 222.998Z" fill="#3F3D56"/>
<path d="M689.954 266.232L688.961 271.408L754.331 285.609L755.323 280.433L689.954 266.232Z" fill="#3F3D56"/>
<path d="M668.064 343.548L666.699 348.627L730.52 368.065L731.885 362.986L668.064 343.548Z" fill="#3F3D56"/>
<path d="M711.218 493.413L713.027 488.494L651.081 462.675L648.039 427.617L705.857 450.604L724.588 479.452L728.672 476.449L709.053 446.235L642.37 419.724L646.42 466.406L711.218 493.413Z" fill="#3F3D56"/>
<path d="M732.744 536.053C751.298 536.053 766.339 520.044 766.339 500.295C766.339 480.546 751.298 464.536 732.744 464.536C714.19 464.536 699.149 480.546 699.149 500.295C699.149 520.044 714.19 536.053 732.744 536.053Z" fill="#3F3D56"/>
<path d="M741.525 517.772C749.748 517.772 756.413 510.677 756.413 501.925C756.413 493.172 749.748 486.077 741.525 486.077C733.302 486.077 726.636 493.172 726.636 501.925C726.636 510.677 733.302 517.772 741.525 517.772Z" fill="#E6E6E6"/>
</svg>
