<svg width="1017" height="483" viewBox="0 0 1017 483" fill="none" xmlns="http://www.w3.org/2000/svg">
<path opacity="0.1" d="M377.875 323.934C586.57 323.934 755.75 319.402 755.75 313.812C755.75 308.222 586.57 303.691 377.875 303.691C169.18 303.691 0 308.222 0 313.812C0 319.402 169.18 323.934 377.875 323.934Z" fill="#6C63FF"/>
<path opacity="0.7" d="M237.136 239.106H116.64V305.62H237.136V239.106Z" fill="#65617D"/>
<path opacity="0.1" d="M195.685 250.675H159.055V258.386H195.685V250.675Z" fill="black"/>
<path opacity="0.1" d="M191.106 251.638H163.633V257.421H191.106V251.638Z" fill="black"/>
<path opacity="0.7" d="M359.559 239.106H239.064V305.62H359.559V239.106Z" fill="#65617D"/>
<path opacity="0.1" d="M318.109 250.675H281.478V258.386H318.109V250.675Z" fill="black"/>
<path opacity="0.1" d="M313.53 251.638H286.057V257.421H313.53V251.638Z" fill="black"/>
<path opacity="0.7" d="M237.136 170.666H116.64V237.18H237.136V170.666Z" fill="#65617D"/>
<path opacity="0.1" d="M195.685 182.231H159.055V189.943H195.685V182.231Z" fill="black"/>
<path opacity="0.1" d="M191.106 183.198H163.633V188.981H191.106V183.198Z" fill="black"/>
<path opacity="0.7" d="M359.559 170.666H239.064V237.18H359.559V170.666Z" fill="#65617D"/>
<path opacity="0.1" d="M318.109 182.231H281.478V189.943H318.109V182.231Z" fill="black"/>
<path opacity="0.1" d="M313.53 183.198H286.057V188.981H313.53V183.198Z" fill="black"/>
<path opacity="0.7" d="M237.136 101.259H116.64V167.773H237.136V101.259Z" fill="#65617D"/>
<path opacity="0.1" d="M195.685 112.828H159.055V120.539H195.685V112.828Z" fill="black"/>
<path opacity="0.1" d="M191.106 113.791H163.633V119.574H191.106V113.791Z" fill="black"/>
<path opacity="0.7" d="M359.559 101.259H239.064V167.773H359.559V101.259Z" fill="#65617D"/>
<path opacity="0.1" d="M318.109 112.828H281.478V120.539H318.109V112.828Z" fill="black"/>
<path opacity="0.1" d="M313.53 113.791H286.057V119.574H313.53V113.791Z" fill="black"/>
<path opacity="0.7" d="M359.559 31.8522H239.064V98.3657H359.559V31.8522Z" fill="#65617D"/>
<path opacity="0.1" d="M318.109 43.4208H281.478V51.1325H318.109V43.4208Z" fill="black"/>
<path opacity="0.1" d="M313.53 44.3837H286.057V50.1675H313.53V44.3837Z" fill="black"/>
<path opacity="0.7" d="M481.983 238.143H361.487V304.657H481.983V238.143Z" fill="#65617D"/>
<path opacity="0.1" d="M440.533 249.711H403.902V257.423H440.533V249.711Z" fill="black"/>
<path opacity="0.1" d="M435.954 250.675H408.481V256.458H435.954V250.675Z" fill="black"/>
<path opacity="0.7" d="M604.407 238.143H483.911V304.657H604.407V238.143Z" fill="#65617D"/>
<path opacity="0.1" d="M562.956 249.711H526.326V257.423H562.956V249.711Z" fill="black"/>
<path opacity="0.1" d="M558.377 250.675H530.904V256.458H558.377V250.675Z" fill="black"/>
<path opacity="0.7" d="M481.983 169.699H361.487V236.213H481.983V169.699Z" fill="#65617D"/>
<path opacity="0.1" d="M440.533 181.268H403.902V188.979H440.533V181.268Z" fill="black"/>
<path opacity="0.1" d="M435.954 182.231H408.481V188.015H435.954V182.231Z" fill="black"/>
<path opacity="0.7" d="M604.407 169.699H483.911V236.213H604.407V169.699Z" fill="#65617D"/>
<path opacity="0.1" d="M562.956 181.268H526.326V188.979H562.956V181.268Z" fill="black"/>
<path opacity="0.1" d="M558.377 182.231H530.904V188.015H558.377V182.231Z" fill="black"/>
<path opacity="0.7" d="M481.983 100.296H361.487V166.81H481.983V100.296Z" fill="#65617D"/>
<path opacity="0.1" d="M440.533 111.862H403.902V119.574H440.533V111.862Z" fill="black"/>
<path opacity="0.1" d="M435.954 112.828H408.481V118.612H435.954V112.828Z" fill="black"/>
<path opacity="0.7" d="M604.407 100.296H483.911V166.81H604.407V100.296Z" fill="#65617D"/>
<path opacity="0.1" d="M562.956 111.862H526.326V119.574H562.956V111.862Z" fill="black"/>
<path opacity="0.1" d="M558.377 112.828H530.904V118.612H558.377V112.828Z" fill="black"/>
<path opacity="0.7" d="M604.407 30.8893H483.911V97.4029H604.407V30.8893Z" fill="#65617D"/>
<path opacity="0.1" d="M562.956 42.4579H526.326V50.1696H562.956V42.4579Z" fill="black"/>
<path opacity="0.1" d="M558.377 43.4208H530.904V49.2046H558.377V43.4208Z" fill="black"/>
<path d="M671.268 183.918C671.189 183.188 670.928 182.489 670.508 181.886C670.089 181.283 669.525 180.795 668.868 180.467C668.314 180.231 667.719 180.109 667.118 180.108C666.517 180.107 665.921 180.227 665.367 180.461C664.813 180.695 664.312 181.038 663.893 181.469C663.474 181.901 663.147 182.412 662.93 182.973L641.52 228.02L636.7 405.389H644.412L647.304 228.415L670.863 186.714C671.289 185.848 671.431 184.869 671.268 183.918Z" fill="#3F3D56"/>
<path opacity="0.1" d="M1016.56 445.452C1010.24 450.972 1003.44 455.912 996.24 460.21C996.127 460.369 996.001 460.517 995.864 460.654C995.099 461.303 994.19 461.759 993.213 461.984C969.325 475.297 942.401 482.211 915.054 482.054H385.047C324.317 475.807 287.262 467.527 287.262 458.437C287.262 451.39 309.51 444.826 347.818 439.331C351.79 438.753 355.932 438.193 360.244 437.654C362.898 437.319 365.613 436.998 368.389 436.69L373.103 436.14C376.599 435.742 380.188 435.353 383.871 434.974H384.169L388.025 434.588C391.284 434.251 394.609 433.933 398.002 433.624L400.47 433.402L406.765 432.843C410.852 432.477 415.029 432.127 419.296 431.793C422.837 431.516 426.436 431.24 430.093 430.964C467.167 428.216 509.909 426.144 556.42 424.804L569.704 424.351L574.177 424.254L583.624 424.042L587.412 423.965L591.393 423.888L594.227 423.84L607.53 423.628L614.365 423.531H615.762C631.925 423.339 648.389 423.239 665.156 423.233C698.297 423.233 730.436 423.628 761.061 424.38C778.644 424.804 795.69 425.344 812.199 425.999H812.353C859.954 427.869 902.561 430.626 937.823 434.048L938.469 434.116C947.521 434.993 956.09 435.928 964.13 436.892C971.697 437.798 978.801 438.753 985.395 439.726C987.68 440.063 989.897 440.411 992.056 440.748L992.605 440.844C1001.74 442.319 1009.76 443.823 1016.56 445.452Z" fill="#6C63FF"/>
<path d="M996.239 460.211C996.127 460.37 996.001 460.518 995.863 460.655C995.099 461.304 994.19 461.76 993.212 461.985C991.263 462.532 989.258 462.855 987.236 462.949H986.629C985.474 462.988 984.318 462.949 983.168 462.833C982.329 462.712 981.481 462.657 980.633 462.67H980.517C979.284 462.843 978.073 463.143 976.902 463.566C974.294 464.281 971.606 464.663 968.901 464.704H967.937C964.91 464.704 961.845 464.598 958.809 464.617C958.317 464.617 957.845 464.617 957.334 464.617C952.128 464.752 946.952 465.581 941.746 465.668H940.079C934.979 465.542 929.764 464.453 925.706 461.368C924.888 460.827 924.223 460.083 923.778 459.209C923.432 458.287 923.317 457.294 923.441 456.317C923.537 454.572 923.875 452.673 925.186 451.497C926.009 450.865 926.954 450.409 927.962 450.157C929.726 449.589 931.499 449.039 933.264 448.49C935.028 447.94 937.042 447.352 938.941 446.793L939.308 446.677L940.368 446.359L941.052 446.128C941.882 445.862 942.678 445.499 943.424 445.048C944.407 444.426 945.24 443.593 945.863 442.609C945.969 442.436 946.084 442.253 946.181 442.07C946.277 441.886 946.181 441.771 946.113 441.617C945.949 440.412 945.824 439.178 945.612 438.002C942.899 437.373 940.425 435.973 938.488 433.972C936.824 432.323 935.423 430.427 934.334 428.352C931.933 423.841 930.699 418.799 928.906 414.009C926.159 406.721 922.159 399.992 918.129 393.322C914.447 387.172 910.745 381.002 906.562 375.19C903.776 371.334 900.778 367.661 898.021 363.796C890.222 353.009 884.627 340.791 881.556 327.84C881.086 325.355 880.419 322.911 879.561 320.533C877.903 316.484 874.866 313.187 872.514 309.486C869.986 305.496 868.254 301.053 867.415 296.405C866.933 293.763 866.123 290.91 863.492 290.621L863.212 291.17C857.756 301.774 852.155 312.57 843.933 321.227C842.618 322.499 841.415 323.883 840.337 325.362C839.473 326.796 838.7 328.284 838.024 329.816C836.722 332.566 834.995 335.094 832.905 337.306C832.283 337.935 831.606 338.506 830.881 339.012C829.918 339.712 828.846 340.249 827.709 340.602C827.261 340.739 826.804 340.842 826.34 340.911C826.34 341.027 826.389 341.133 826.398 341.248C826.408 341.364 826.456 341.499 826.475 341.624C827.894 349.337 827.286 357.285 824.711 364.692C824.644 364.923 824.567 365.145 824.48 365.376C824.082 366.456 823.648 367.516 823.179 368.558C822.003 371.112 820.605 373.561 819.506 376.154C819.323 376.597 819.14 377.04 818.976 377.484C815.12 387.808 816.084 399.337 815.583 410.432C815.538 412.858 815.251 415.274 814.725 417.643C814.069 420.313 813.018 423.07 812.44 425.827C811.913 427.894 811.87 430.055 812.315 432.141L812.083 432.228C811.052 432.613 810.001 432.96 808.951 433.288V433.432C809.326 435.592 809.693 437.751 810.069 439.901C810.387 441.751 810.763 443.757 812.054 445.068C812.406 445.357 812.729 445.68 813.018 446.031C813.78 447.227 813.105 448.808 813.25 450.225C813.462 452.23 815.313 453.936 815.023 455.931C814.893 456.528 814.62 457.083 814.227 457.55C813.834 458.017 813.333 458.381 812.768 458.611C812.293 458.826 811.795 458.985 811.283 459.084L810.965 459.151C810.387 459.257 809.808 459.315 809.23 459.373C802.048 460.086 794.771 460.799 787.656 459.585C786.249 459.344 784.851 459.026 783.425 458.91C781.622 458.83 779.816 458.904 778.026 459.132C764.829 460.381 751.557 460.639 738.321 459.903C734.879 459.71 730.927 459.151 729.105 456.211C727.592 453.772 728.141 450.62 728.903 447.834C729.121 446.81 729.515 445.831 730.069 444.942C730.131 444.846 730.202 444.756 730.281 444.672C732.055 442.465 735.39 442.33 738.263 442.417L747.652 442.696C748.576 442.771 749.507 442.7 750.409 442.484C751.932 442.041 753.089 440.826 754.515 440.142C756.308 439.284 758.564 439.178 759.856 437.712L760.02 437.5C760.248 437.19 760.46 436.868 760.656 436.536C760.656 436.469 760.743 436.401 760.791 436.334C760.826 436.274 760.865 436.216 760.906 436.16C762.092 434.599 764.165 434.078 765.852 433.085C766.107 432.936 766.349 432.766 766.575 432.575L766.767 432.401C764.951 431.105 763.367 429.511 762.082 427.687C761.587 427.154 761.221 426.514 761.013 425.817C760.895 425.294 760.935 424.747 761.128 424.246C761.17 424.123 761.221 424.004 761.282 423.889L761.331 423.793C761.986 422.501 763.336 421.335 764.078 420.014C764.106 419.972 764.129 419.927 764.145 419.879C765.167 417.951 765.37 414.963 763.856 413.411C764.627 400.715 768.117 388.348 768.888 375.614C769.197 370.572 769.071 365.511 769.303 360.451C769.534 355.39 770.074 350.483 770.643 345.519C771.915 334.173 775 323.058 774.566 311.664C774.529 310.602 774.574 309.538 774.701 308.483C774.696 308.406 774.696 308.329 774.701 308.252C775.01 305.917 775.738 303.657 776.85 301.581C778.248 299.235 779.831 297.004 781.584 294.91C787.512 287.199 794.636 279.487 796.747 270.002C797.836 265.105 800.246 260.622 802.646 256.217C804.063 253.595 805.538 250.905 807.803 248.977C809.03 248.128 810.17 247.159 811.206 246.086C812.787 244.042 812.845 241.218 813.78 238.788C814.262 237.526 815.004 236.369 815.37 235.067C815.37 234.932 815.438 234.807 815.467 234.672C815.681 233.359 815.793 232.031 815.804 230.701C815.804 230.315 815.862 229.939 815.91 229.563C816.473 225.752 817.58 222.042 819.197 218.545C819.4 218.102 819.593 217.649 819.785 217.205C815.338 214.61 811.415 211.207 808.218 207.17C807.134 205.864 806.194 204.445 805.413 202.938C803.427 198.996 802.974 194.504 802.039 190.185C799.802 179.89 794.684 170.192 793.971 159.666C793.758 156.456 793.97 153.14 792.852 150.103C792.544 149.282 792.18 148.484 791.763 147.713C791.589 147.385 791.426 147.057 791.252 146.749L791.059 146.382L790.568 145.419L789.777 146.035C770.056 161.477 749.352 175.62 727.794 188.373L725.943 189.472C724.98 189.937 724.141 190.624 723.495 191.477C723.418 191.602 723.35 191.727 723.283 191.853C722.839 192.769 722.724 193.781 722.319 194.745C721.451 196.952 719.225 198.36 716.95 199.015C712.834 200.073 708.469 199.511 704.755 197.444C704.283 197.203 703.791 196.952 703.367 196.673C702.24 197.297 701.051 197.805 699.82 198.186C695.964 199.304 691.925 199.256 687.934 199.246C683.943 199.237 679.866 199.246 676.087 200.557C673.562 201.415 671.113 202.832 668.491 202.967C668.189 202.987 667.887 202.987 667.585 202.967C666.09 202.796 664.636 202.369 663.286 201.705L662.495 201.348C662.086 201.154 661.687 200.938 661.3 200.702C660.878 200.442 660.487 200.134 660.133 199.786C659.623 199.274 659.252 198.64 659.054 197.945C658.924 197.442 658.924 196.915 659.054 196.412C659.091 196.187 659.207 195.982 659.382 195.834C659.553 195.732 659.751 195.682 659.95 195.689C661.056 195.677 662.16 195.771 663.247 195.969C663.886 196.057 664.531 196.092 665.175 196.075H665.522C666.091 196.014 666.64 195.837 667.138 195.555C667.635 195.273 668.069 194.892 668.414 194.436C668.52 194.295 668.604 194.139 668.665 193.974C668.781 193.703 668.84 193.411 668.838 193.116C668.843 193.042 668.843 192.968 668.838 192.894C668.433 192.711 668.028 192.528 667.643 192.306C667.44 192.2 667.248 192.084 667.055 191.968L666.939 191.891C666.593 191.656 666.27 191.388 665.975 191.091C665.788 190.906 665.623 190.698 665.483 190.474C665.228 190.125 665.035 189.734 664.915 189.318C664.12 189.152 663.298 189.175 662.515 189.385C661.464 189.674 660.403 190.291 659.362 190.503C658.837 190.635 658.284 190.612 657.772 190.436C656.268 189.896 655.738 188.064 655.42 186.493C655.362 186.194 655.294 185.886 655.246 185.577C655.135 184.985 655.135 184.377 655.246 183.784C655.712 182.438 656.602 181.278 657.781 180.478L660.943 177.827L661.175 177.634C661.175 177.374 661.069 177.114 661.03 176.853C660.919 176.258 660.919 175.647 661.03 175.051C661.496 173.707 662.386 172.55 663.565 171.754L670.564 165.864C671.875 164.765 673.301 163.609 675.007 163.493C677.543 163.319 679.567 165.421 681.466 167.108C683.857 169.229 686.758 170.964 689.949 171.176C691.468 171.245 692.987 171.036 694.431 170.559L695.251 170.289C695.077 169.932 694.904 169.576 694.74 169.219C694.46 168.631 694.181 168.033 693.911 167.436C698.017 167.175 701.748 164.92 704.862 162.22C707.975 159.521 710.645 156.331 713.788 153.68C717.181 150.788 721.075 148.638 724.517 145.852C732.518 139.365 737.829 129.831 746.389 124.115C749.358 122.119 752.79 120.529 754.814 117.56C755.441 116.596 755.913 115.632 756.559 114.668C758.612 111.776 762.131 110.446 765.032 108.441C767.934 106.436 770.459 103.496 772.821 100.671C774.498 98.6565 776.185 96.6418 777.785 94.5693C779.26 91.822 780.504 88.9493 782.046 86.2406C783.355 83.9522 784.882 81.7958 786.606 79.8013C787.001 79.0301 787.406 78.259 787.84 77.5071C788.273 76.7552 788.592 76.2443 788.996 75.5791C789.276 75.1453 789.565 74.7309 789.864 74.3067C788.987 72.7547 788.148 71.4148 787.753 70.8268L787.56 70.5665C786.71 69.6607 785.802 68.8107 784.842 68.0216C783.834 67.869 782.836 67.6566 781.853 67.3854C775.904 65.755 770.656 62.2134 766.918 57.3063C763.18 52.3993 761.159 46.3992 761.167 40.2305C761.162 40.2018 761.162 40.1725 761.167 40.1437C761.17 35.726 762.221 31.372 764.232 27.4386C764.637 26.6482 765.071 25.8867 765.543 25.1444C765.103 25.0053 764.674 24.8312 764.261 24.6239C763.558 24.2772 762.944 23.7724 762.468 23.149C762.075 22.5937 761.821 21.9525 761.726 21.2789C761.563 19.6901 761.801 18.0858 762.42 16.6133C762.683 15.9044 762.982 15.2095 763.316 14.5311C763.343 14.4915 763.365 14.4495 763.384 14.4058C767.693 5.73012 776.879 0.399371 786.056 0.0234236C795.956 -0.371803 805.596 4.27454 813.404 10.9259C815.734 12.8376 817.819 15.0295 819.612 17.452C823.69 23.1201 825.531 30.3691 826.071 37.5507C826.273 39.7719 826.234 42.0085 825.955 44.2213C825.853 45.0099 825.692 45.7897 825.473 46.5541C825.348 47.0072 825.184 47.4602 825.01 47.9133C824.837 48.3664 824.731 48.5688 824.576 48.8773V48.9255C824.432 49.2339 824.268 49.5231 824.104 49.8123L824.017 49.9376L823.892 50.1401C823.969 50.3232 824.056 50.516 824.143 50.6992C824.229 50.8823 824.306 51.0558 824.403 51.2294H824.519C826.447 51.3836 828.23 51.6535 830.196 51.8077C831.121 51.8517 832.039 51.9938 832.934 52.2319C834.862 52.8102 836.317 54.2177 837.937 55.3551C841.947 58.1892 846.883 59.5098 850.825 62.4403C856.609 66.7588 859.501 73.8922 863.01 80.2833C867.637 88.8433 875.175 96.1309 878.501 105.289C880.004 109.447 881.515 113.598 883.031 117.743C885.991 125.869 888.95 134.034 892.97 141.698C898.561 152.359 906.128 161.941 910.61 173.142C911.055 174.265 911.891 175.189 912.962 175.745C919.07 184.37 924.501 193.455 929.205 202.919C931.683 207.922 934.025 213.118 934.748 218.661C935.312 223.596 934.903 228.593 933.543 233.371C932.774 236.209 931.831 238.997 930.719 241.719C930.285 242.672 929.962 243.671 929.755 244.697C929.755 244.803 929.755 244.91 929.755 245.016C929.562 246.866 930.266 248.698 930.458 250.549C930.62 252.039 930.452 253.546 929.967 254.964C929.89 255.185 929.803 255.407 929.716 255.629C929.118 256.756 928.612 257.929 928.203 259.138C928.168 259.284 928.142 259.432 928.126 259.581C927.807 261.673 928.637 263.784 929.09 265.876C930.786 273.433 930.478 281.299 930.054 289.011C929.832 292.867 932.945 295.961 935.548 298.805C940.368 304.136 944.137 310.372 947.771 316.58C949.754 319.732 951.423 323.07 952.755 326.548C954.133 330.519 954.683 334.722 955.444 338.838C957.903 351.563 965.932 362.803 968.111 375.556C969.121 381.396 971.697 386.853 975.562 391.346C976.727 392.549 977.8 393.838 978.772 395.202C979.444 396.288 979.978 397.454 980.363 398.672C981.311 401.507 981.758 404.485 981.684 407.473C981.531 408.903 981.612 410.349 981.924 411.753C982.831 414.712 986.069 416.341 987.409 419.127C988.749 421.913 987.824 425.48 988.373 428.642C988.804 431.191 990.181 433.483 992.229 435.062C991.458 435.736 990.648 436.353 989.819 436.99C990.587 437.585 991.259 438.294 991.815 439.091C992.194 439.625 992.517 440.197 992.779 440.797C994.051 443.757 994.09 447.275 995.131 450.437C995.574 451.748 996.201 453.136 995.815 454.466C995.65 454.847 995.54 455.25 995.487 455.662C995.487 456.529 996.394 457.098 996.741 457.888C996.867 458.286 996.887 458.709 996.799 459.117C996.711 459.524 996.518 459.902 996.239 460.211Z" fill="url(#paint0_linear)"/>
<path d="M792.225 84.2645C798.125 82.6739 803.378 79.3482 808.526 76.0611L826.465 64.6381C821.597 64.2525 817.394 60.7822 814.898 56.5794C812.401 52.3765 811.37 47.4891 810.521 42.6886C802.81 45.6962 796.129 50.7956 789.902 56.1841C787.434 58.3145 782.19 61.5341 781.429 64.8598C780.667 68.1855 785.526 70.8846 787.406 73.1114C788.051 73.8536 794.134 83.7343 792.225 84.2645Z" fill="#FBBEBE"/>
<path opacity="0.1" d="M792.225 84.2645C798.125 82.6739 803.378 79.3482 808.526 76.0611L826.465 64.6381C821.597 64.2525 817.394 60.7822 814.898 56.5794C812.401 52.3765 811.37 47.4891 810.521 42.6886C802.81 45.6962 796.129 50.7956 789.902 56.1841C787.434 58.3145 782.19 61.5341 781.429 64.8598C780.667 68.1855 785.526 70.8846 787.406 73.1114C788.051 73.8536 794.134 83.7343 792.225 84.2645Z" fill="black"/>
<path d="M694.201 178.619C691.039 180.238 687.674 181.896 684.137 181.665C680.956 181.463 678.054 179.737 675.663 177.626C673.735 175.949 671.75 173.857 669.214 174.03C667.518 174.146 666.091 175.293 664.78 176.382L657.791 182.234C656.615 183.024 655.726 184.174 655.256 185.511C655.118 186.419 655.174 187.345 655.42 188.23C655.738 189.791 656.268 191.613 657.772 192.143C659.276 192.674 660.915 191.536 662.505 191.102C663.477 190.854 664.497 190.872 665.459 191.156C666.421 191.439 667.289 191.977 667.971 192.712C668.539 193.271 668.882 194.019 668.935 194.813C668.935 196.558 667.007 197.705 665.233 197.792C663.46 197.879 661.763 197.301 660.009 197.407C659.903 197.393 659.795 197.401 659.692 197.43C659.59 197.459 659.494 197.508 659.41 197.574C659.326 197.641 659.257 197.723 659.206 197.817C659.155 197.911 659.123 198.014 659.112 198.12C659.003 198.729 659.049 199.355 659.247 199.942C659.444 200.528 659.785 201.055 660.24 201.475C661.156 202.31 662.222 202.965 663.382 203.402C664.731 204.069 666.186 204.493 667.682 204.656C670.641 204.848 673.36 203.21 676.165 202.255C679.943 200.983 684.011 200.944 688.002 200.954C691.993 200.964 696.042 201.021 699.869 199.903C703.696 198.785 707.33 196.308 708.824 192.616C709 192.271 709.058 191.878 708.988 191.497C708.839 191.091 708.552 190.75 708.178 190.533C702.799 186.552 700.621 181.713 694.567 178.85L694.201 178.619Z" fill="#FBBEBE"/>
<path opacity="0.1" d="M694.201 178.619C691.039 180.238 687.674 181.896 684.137 181.665C680.956 181.463 678.054 179.737 675.663 177.626C673.735 175.949 671.75 173.857 669.214 174.03C667.518 174.146 666.091 175.293 664.78 176.382L657.791 182.234C656.615 183.024 655.726 184.174 655.256 185.511C655.118 186.419 655.174 187.345 655.42 188.23C655.738 189.791 656.268 191.613 657.772 192.143C659.276 192.674 660.915 191.536 662.505 191.102C663.477 190.854 664.497 190.872 665.459 191.156C666.421 191.439 667.289 191.977 667.971 192.712C668.539 193.271 668.882 194.019 668.935 194.813C668.935 196.558 667.007 197.705 665.233 197.792C663.46 197.879 661.763 197.301 660.009 197.407C659.903 197.393 659.795 197.401 659.692 197.43C659.59 197.459 659.494 197.508 659.41 197.574C659.326 197.641 659.257 197.723 659.206 197.817C659.155 197.911 659.123 198.014 659.112 198.12C659.003 198.729 659.049 199.355 659.247 199.942C659.444 200.528 659.785 201.055 660.24 201.475C661.156 202.31 662.222 202.965 663.382 203.402C664.731 204.069 666.186 204.493 667.682 204.656C670.641 204.848 673.36 203.21 676.165 202.255C679.943 200.983 684.011 200.944 688.002 200.954C691.993 200.964 696.042 201.021 699.869 199.903C703.696 198.785 707.33 196.308 708.824 192.616C709 192.271 709.058 191.878 708.988 191.497C708.839 191.091 708.552 190.75 708.178 190.533C702.799 186.552 700.621 181.713 694.567 178.85L694.201 178.619Z" fill="black"/>
<path opacity="0.3" d="M807.08 75.8102C805.585 74.8449 803.887 74.236 802.119 74.0304C800.351 73.8248 798.559 74.0281 796.882 74.6245C793.523 75.8342 790.51 77.8423 788.1 80.4758C785.694 82.929 783.611 85.6793 781.902 88.6598C780.263 91.5517 779.01 94.5786 777.371 97.4608C774.479 102.618 770.7 107.168 766.902 111.679C764.541 114.484 762.15 117.328 759.123 119.391C756.096 121.454 752.713 122.717 750.659 125.58C750.014 126.486 749.551 127.508 748.915 128.423C746.9 131.373 743.478 132.954 740.499 134.93C731.959 140.618 726.647 150.084 718.666 156.533C715.224 159.309 711.339 161.487 707.956 164.321C704.804 166.953 702.172 170.105 699.029 172.804C695.887 175.503 692.195 177.73 688.098 177.981C690.836 184.083 694.104 190.069 698.798 194.821C703.493 199.574 710.53 202.61 716.94 200.75C719.215 200.094 721.442 198.706 722.309 196.508C722.582 195.379 722.963 194.278 723.447 193.221C724.091 192.373 724.927 191.689 725.886 191.226C751.619 176.205 776.148 159.21 799.253 140.396C805.451 135.345 811.601 130.824 817.964 125.936C820.245 124.318 822.354 122.471 824.258 120.422C826.912 117.254 828.569 113.372 829.022 109.264C829.475 105.156 828.703 101.006 826.803 97.3355C825.097 94.5276 823.142 91.8788 820.962 89.4214C816.995 84.2568 812.322 79.675 807.08 75.8102Z" fill="black"/>
<path opacity="0.1" d="M807.08 75.529C805.585 74.7098 803.887 74.1931 802.119 74.0186C800.351 73.8442 798.559 74.0167 796.882 74.5228C793.523 75.5494 790.51 77.2535 788.1 79.4883C785.694 81.5702 783.611 83.904 781.902 86.4334C780.263 88.8875 779.01 91.4561 777.371 93.9021C774.479 98.2785 770.7 102.14 766.902 105.968C764.541 108.349 762.15 110.762 759.123 112.512C756.096 114.263 752.713 115.335 750.659 117.764C750.014 118.533 749.551 119.4 748.915 120.177C746.9 122.681 743.478 124.022 740.499 125.699C731.959 130.525 726.647 138.559 718.666 144.031C715.224 146.387 711.339 148.236 707.956 150.641C704.804 152.874 702.172 155.549 699.029 157.84C695.887 160.13 692.195 162.02 688.098 162.233C690.836 167.411 694.104 172.491 698.798 176.524C703.493 180.557 710.53 183.133 716.94 181.555C719.215 180.998 721.442 179.82 722.309 177.955C722.582 176.997 722.963 176.062 723.447 175.166C724.091 174.446 724.927 173.866 725.886 173.472C751.619 160.725 776.148 146.304 799.253 130.337C805.451 126.051 811.601 122.214 817.964 118.067C820.245 116.694 822.354 115.126 824.258 113.388C826.912 110.699 828.569 107.404 829.022 103.918C829.475 100.432 828.703 96.9104 826.803 93.7957C825.097 91.4128 823.142 89.1651 820.962 87.0796C816.995 82.6969 812.322 78.8087 807.08 75.529Z" fill="#575A89"/>
<path d="M765.658 433.413C763.972 434.377 761.899 434.917 760.713 436.478C760.328 436.98 760.067 437.568 759.653 438.05C758.371 439.553 756.096 439.621 754.313 440.479C752.886 441.154 751.729 442.407 750.216 442.802C749.31 443.017 748.377 443.089 747.449 443.014L738.079 442.735C735.11 442.648 731.63 442.802 729.905 445.222C729.344 446.108 728.946 447.087 728.729 448.113C728.006 450.88 727.418 454.013 728.931 456.442C730.744 459.334 734.715 459.922 738.137 460.115C751.357 460.846 764.613 460.588 777.795 459.344C779.578 459.116 781.378 459.042 783.174 459.122C784.6 459.238 785.998 459.556 787.406 459.797C794.51 461.002 801.778 460.298 808.95 459.585C810.162 459.526 811.357 459.272 812.488 458.833C813.051 458.603 813.549 458.24 813.94 457.775C814.332 457.31 814.604 456.756 814.734 456.163C815.033 454.177 813.172 452.49 812.97 450.494C812.825 449.087 813.5 447.516 812.729 446.32C812.44 445.968 812.117 445.645 811.765 445.357C810.473 444.017 810.097 442.06 809.779 440.228L808.092 430.328C808.045 429.63 807.759 428.97 807.283 428.458C806.928 428.203 806.519 428.034 806.087 427.967C798.742 426.308 791.213 427.822 783.916 428.747C780.161 429.298 776.362 429.488 772.57 429.316C770.931 429.21 770.295 429.017 769.071 430.087C767.847 431.157 767.191 432.516 765.658 433.413Z" fill="#3F3D56"/>
<path d="M943.038 445.327C941.748 446.048 940.367 446.589 938.931 446.937C935.146 448.042 931.367 449.196 927.595 450.398C926.591 450.646 925.649 451.099 924.828 451.728C923.517 452.885 923.18 454.774 923.083 456.548C922.959 457.525 923.074 458.518 923.421 459.44C923.873 460.304 924.536 461.04 925.349 461.58C929.667 464.847 935.307 465.86 940.724 465.86C946.141 465.86 951.52 464.944 956.938 464.799C963.483 464.626 970.202 465.551 976.497 463.72C977.698 463.275 978.947 462.971 980.218 462.814C981.063 462.801 981.907 462.855 982.743 462.977C986.119 463.311 989.528 463 992.788 462.062C993.769 461.844 994.682 461.391 995.448 460.741C995.828 460.413 996.099 459.977 996.226 459.492C996.353 459.007 996.331 458.495 996.162 458.023C995.815 457.242 994.928 456.673 994.918 455.815C994.964 455.403 995.071 455 995.236 454.62C995.631 453.299 994.995 451.921 994.552 450.619C993.308 446.898 993.511 442.618 991.284 439.389C989.057 436.16 984.97 434.83 981.085 434.319C977.928 433.873 974.717 433.964 971.59 434.589C968.072 435.34 964.785 436.912 961.334 437.914C957.329 439.066 953.144 439.462 948.995 439.081C946.238 438.849 947.183 439.283 946.248 441.597C945.585 443.139 944.464 444.442 943.038 445.327Z" fill="#3F3D56"/>
<path d="M789.006 70.893C804.445 70.893 816.961 58.3771 816.961 42.938C816.961 27.4989 804.445 14.983 789.006 14.983C773.566 14.983 761.051 27.4989 761.051 42.938C761.051 58.3771 773.566 70.893 789.006 70.893Z" fill="#FBBEBE"/>
<path d="M991.671 435.332C982.996 442.783 971.284 446.041 959.861 446.157C955.041 446.205 950.038 445.685 945.931 443.188C945.642 441.607 945.526 439.901 945.237 438.32C940.253 437.279 936.388 433.221 933.978 428.729C931.568 424.236 930.344 419.243 928.551 414.481C925.813 407.232 921.803 400.552 917.793 393.92C914.111 387.808 910.419 381.677 906.225 375.903C903.449 372.047 900.442 368.423 897.694 364.577C889.911 353.87 884.325 341.728 881.259 328.852C880.79 326.383 880.123 323.955 879.263 321.593C877.605 317.564 874.569 314.287 872.226 310.614C869.7 306.65 867.968 302.234 867.127 297.61C866.655 294.988 865.845 292.154 863.213 291.884C857.68 302.632 852.041 313.554 843.674 322.297C842.359 323.559 841.156 324.933 840.078 326.404C839.214 327.831 838.441 329.312 837.765 330.838C836.467 333.573 834.742 336.085 832.656 338.28C830.906 340.15 828.601 341.408 826.081 341.866C827.94 351.128 826.834 360.741 822.919 369.339C821.753 371.883 820.355 374.313 819.256 376.886C814.764 387.49 815.805 399.453 815.333 410.953C815.292 413.363 815.008 415.763 814.485 418.115C813.318 422.819 810.908 427.822 812.075 432.527C799.987 437.144 786.559 436.855 773.757 434.908C771.253 434.679 768.823 433.941 766.614 432.739C764.799 431.453 763.214 429.869 761.929 428.054C761.434 427.525 761.067 426.888 760.859 426.193C760.358 423.995 762.787 422.337 763.915 420.41C765.043 418.482 765.245 415.426 763.693 413.845C764.464 401.227 767.954 388.907 768.725 376.25C769.034 371.238 768.908 366.206 769.14 361.183C769.371 356.161 769.911 351.274 770.47 346.338C771.742 335.07 774.827 324.023 774.393 312.696C774.261 309.21 775.063 305.752 776.716 302.68C778.11 300.346 779.69 298.128 781.44 296.048C787.359 288.404 794.473 280.741 796.584 271.303C797.673 266.435 800.083 261.982 802.474 257.605C803.891 254.993 805.366 252.323 807.621 250.405C808.848 249.556 809.988 248.587 811.024 247.513C812.605 245.479 812.663 242.693 813.598 240.264C814.08 239.01 814.822 237.854 815.179 236.562C815.473 235.135 815.618 233.681 815.613 232.224C815.921 227.559 817.714 223.047 819.603 218.777C815.16 216.204 811.237 212.824 808.036 208.809C806.961 207.506 806.024 206.094 805.24 204.597C803.255 200.683 802.801 196.22 801.866 191.93C799.64 181.693 794.521 172.063 793.808 161.604C793.596 158.413 793.808 155.117 792.699 152.099C792.188 150.822 791.588 149.582 790.906 148.388C790.234 147.215 789.722 145.957 789.383 144.648C788.766 141.804 789.614 138.864 789.383 135.972C789.152 133.418 788.062 131.027 787.523 128.53C786.971 125.282 786.877 121.972 787.243 118.698C787.484 114.842 788.323 110.861 787.995 107.053C787.464 100.753 788.266 94.4107 790.351 88.4412C792.435 82.4717 795.755 77.0086 800.093 72.4083L800.314 72.1865C802.156 70.2586 804.17 68.5524 805.828 66.5088C808.084 63.7711 809.684 60.5515 812.065 57.8909C813.106 56.7053 814.282 55.6449 815.314 54.4496C816.26 53.1958 817.308 52.0222 818.447 50.9407C819.023 50.4057 819.721 50.0197 820.48 49.8164C821.24 49.6131 822.037 49.5987 822.804 49.7743C822.997 51.2119 823.448 52.603 824.134 53.8808C826.139 54.0351 827.922 54.3146 829.918 54.4689C830.843 54.5128 831.761 54.655 832.656 54.893C834.535 55.4617 836.039 56.8209 837.649 57.9873C841.659 60.8117 846.585 62.1227 850.527 65.0339C856.311 69.3236 859.203 76.4087 862.693 82.7613C867.31 91.2731 874.839 98.5125 878.116 107.612L882.637 119.99C885.597 128.068 888.556 136.175 892.566 143.79C898.147 154.394 905.705 163.946 910.187 175.042C910.635 176.155 911.466 177.071 912.53 177.625C918.633 186.185 924.058 195.21 928.753 204.616C931.231 209.59 933.573 214.757 934.287 220.261C935.337 228.041 933.216 235.906 930.267 243.175C929.79 244.215 929.465 245.319 929.303 246.452C929.11 248.293 929.814 250.106 930.007 251.947C930.193 253.666 929.937 255.405 929.264 256.998C928.665 258.118 928.159 259.285 927.751 260.488C927.23 262.705 928.156 264.96 928.657 267.178C930.354 274.687 930.045 282.466 929.621 290.158C929.399 294.014 932.513 297.07 935.106 299.895C939.926 305.187 943.685 311.375 947.319 317.554C949.295 320.688 950.961 324.007 952.293 327.464C953.672 331.407 954.221 335.581 954.983 339.677C957.431 352.315 965.452 363.487 967.63 376.163C968.639 381.971 971.212 387.393 975.072 391.847C976.235 393.052 977.308 394.341 978.282 395.703C978.948 396.784 979.479 397.943 979.863 399.154C980.811 401.969 981.258 404.928 981.183 407.897C981.031 409.318 981.112 410.754 981.424 412.148C982.331 415.088 985.57 416.708 986.9 419.474C988.23 422.241 987.314 425.788 987.864 428.931C988.279 431.469 989.639 433.756 991.671 435.332Z" fill="#575A89"/>
<path d="M699.985 169.944C696.823 171.563 693.459 173.221 689.921 172.99C686.74 172.787 683.838 171.062 681.448 168.951C679.52 167.273 677.534 165.182 674.999 165.355C673.302 165.471 671.875 166.618 670.564 167.707L663.576 173.558C662.399 174.349 661.51 175.499 661.04 176.836C660.902 177.743 660.958 178.67 661.204 179.554C661.522 181.116 662.053 182.938 663.556 183.468C665.06 183.998 666.699 182.861 668.289 182.427C669.261 182.179 670.282 182.197 671.244 182.48C672.206 182.764 673.073 183.301 673.755 184.037C674.323 184.595 674.666 185.343 674.719 186.138C674.719 187.883 672.791 189.03 671.017 189.117C669.244 189.204 667.547 188.625 665.793 188.731C665.687 188.718 665.579 188.726 665.477 188.755C665.374 188.783 665.278 188.832 665.194 188.899C665.111 188.965 665.041 189.048 664.99 189.142C664.939 189.235 664.907 189.338 664.896 189.445C664.787 190.053 664.834 190.68 665.031 191.266C665.228 191.853 665.57 192.38 666.024 192.799C666.94 193.635 668.006 194.289 669.167 194.727C670.515 195.394 671.97 195.818 673.466 195.98C676.425 196.173 679.144 194.534 681.949 193.58C685.728 192.308 689.796 192.269 693.786 192.279C697.777 192.288 701.826 192.346 705.653 191.228C709.48 190.11 713.114 187.632 714.608 183.94C714.785 183.596 714.842 183.203 714.772 182.822C714.623 182.416 714.336 182.075 713.962 181.858C708.583 177.877 706.405 173.038 700.351 170.175L699.985 169.944Z" fill="#FBBEBE"/>
<path d="M775.405 25.7609C773.738 26.0309 772.321 27.1587 770.74 27.7853C769.679 28.1975 768.542 28.3797 767.406 28.3199C766.269 28.2601 765.158 27.9595 764.146 27.4382C763.44 27.0953 762.824 26.5939 762.344 25.973C761.052 24.18 761.505 21.5773 762.295 19.4759C766.036 9.5374 776.022 3.38729 785.913 2.99207C795.803 2.59684 805.423 7.21425 813.222 13.8174C815.541 15.7227 817.622 17.901 819.42 20.3049C823.488 25.9441 825.329 33.1449 825.869 40.2783C826.192 43.2717 825.993 46.2985 825.281 49.2239C824.939 50.6455 824.313 51.9835 823.442 53.1578C822.571 54.3321 821.472 55.3187 820.211 56.0584C817.454 57.4658 814.147 57.0224 811.361 55.6728C808.575 54.3233 806.185 52.1929 803.794 50.1589C802.711 49.1147 801.429 48.2984 800.025 47.7587C799.325 47.5092 798.567 47.4674 797.844 47.6385C797.12 47.8095 796.462 48.186 795.948 48.7226C794.656 50.2746 794.984 52.8195 793.807 54.5064C792.631 56.1934 790.183 56.4344 788.12 56.4344C786.057 56.4344 783.965 56.2608 782.732 54.6221C781.604 53.1376 781.768 50.9687 782.192 49.0986C782.616 47.2285 783.339 45.3777 783.156 43.4594C782.76 39.6035 779.387 37.2322 778.336 33.6848C777.651 31.3616 779.155 30.3784 779.001 28.2769C778.885 26.4261 776.9 25.52 775.405 25.7609Z" fill="#3F3D56"/>
<path opacity="0.1" d="M863.231 291.643V291.884C857.698 302.632 852.059 313.554 843.691 322.297C842.376 323.559 841.173 324.933 840.096 326.403C839.232 327.831 838.459 329.312 837.782 330.838C836.484 333.573 834.76 336.085 832.673 338.279L825.694 341.769L847.865 226.093L863.231 291.643Z" fill="black"/>
<path opacity="0.1" d="M831.007 116.566C829.103 118.614 826.993 120.462 824.712 122.08C818.35 126.9 812.18 131.449 806.001 136.539C801.021 140.594 795.97 144.566 790.848 148.454C790.176 147.28 789.664 146.023 789.325 144.714C788.708 141.87 789.556 138.93 789.325 136.038C789.093 133.483 788.004 131.093 787.464 128.596C786.913 125.348 786.819 122.038 787.185 118.764C787.426 114.908 788.264 110.927 787.937 107.119C787.403 100.803 788.21 94.4459 790.305 88.4638C792.4 82.4817 795.735 77.0098 800.092 72.4065L800.314 72.1848C801.351 71.5816 802.45 71.0904 803.592 70.7196C805.272 70.1302 807.066 69.9349 808.835 70.1489C810.603 70.3628 812.298 70.9802 813.79 71.9535C819.032 75.8183 823.704 80.4001 827.671 85.5647C829.852 88.0221 831.807 90.6709 833.513 93.4788C835.418 97.1455 836.196 101.293 835.75 105.401C835.304 109.509 833.654 113.393 831.007 116.566Z" fill="black"/>
<path d="M812.865 67.1349C811.369 66.1696 809.671 65.5607 807.903 65.3551C806.135 65.1495 804.343 65.3528 802.666 65.9492C799.308 67.1589 796.294 69.167 793.884 71.8005C791.478 74.2538 789.395 77.004 787.686 79.9845C786.047 82.8764 784.794 85.9033 783.155 88.7855C780.263 93.9428 776.485 98.4927 772.687 103.004C770.325 105.809 767.934 108.653 764.907 110.716C761.88 112.779 758.497 114.041 756.444 116.904C755.798 117.811 755.335 118.832 754.699 119.748C752.684 122.698 749.262 124.279 746.283 126.255C737.743 131.942 732.431 141.408 724.45 147.857C721.008 150.634 717.124 152.812 713.74 155.646C710.588 158.278 707.956 161.43 704.814 164.129C701.671 166.828 697.979 169.055 693.882 169.306C696.62 175.407 699.888 181.394 704.582 186.146C709.277 190.898 716.314 193.935 722.724 192.074C724.999 191.419 727.226 190.031 728.093 187.833C728.366 186.703 728.747 185.603 729.231 184.546C729.875 183.698 730.711 183.014 731.67 182.55C757.403 167.529 781.932 150.535 805.037 131.721C811.236 126.669 817.386 122.148 823.748 117.261C826.029 115.643 828.138 113.796 830.042 111.747C832.696 108.579 834.353 104.696 834.806 100.589C835.259 96.4806 834.487 92.3306 832.587 88.6602C830.882 85.8523 828.926 83.2036 826.746 80.7461C822.779 75.5815 818.106 70.9997 812.865 67.1349Z" fill="#575A89"/>
<g opacity="0.1">
<path opacity="0.1" d="M790.048 52.5503C788.12 52.5503 785.893 52.3768 784.659 50.738C783.541 49.2535 783.695 47.0846 784.119 45.2145C784.544 43.3444 785.267 41.4936 785.083 39.5753C784.688 35.7194 781.314 33.3481 780.264 29.8007C779.579 27.4775 781.083 26.4943 780.929 24.3929C780.794 22.571 778.818 21.6648 777.324 21.9058C775.656 22.1757 774.239 23.3036 772.658 23.9301C771.597 24.3424 770.461 24.5246 769.324 24.4648C768.187 24.4049 767.076 24.1044 766.064 23.5831C765.359 23.2402 764.742 22.7387 764.262 22.1179C762.97 20.3249 763.423 17.7222 764.214 15.6208C764.214 15.5437 764.281 15.4762 764.31 15.399C763.504 16.6889 762.826 18.0546 762.286 19.4766C761.495 21.5781 761.042 24.1808 762.334 25.9737C762.814 26.5946 763.431 27.096 764.136 27.439C765.148 27.9603 766.259 28.2608 767.396 28.3206C768.533 28.3804 769.669 28.1982 770.73 27.786C772.311 27.1594 773.728 26.0316 775.396 25.7617C776.89 25.5207 778.866 26.4268 779.001 28.2487C779.155 30.3502 777.651 31.3334 778.336 33.6565C779.367 37.2039 782.741 39.6139 783.156 43.4312C783.348 45.3591 782.645 47.2099 782.192 49.0703C781.738 50.9308 781.613 53.1094 782.731 54.5939C783.965 56.2326 786.173 56.3869 788.12 56.4061C790.067 56.4254 792.573 56.2905 793.807 54.4782C794.34 53.568 794.69 52.5629 794.839 51.5188C793.528 52.4539 791.696 52.5695 790.048 52.5503Z" fill="black"/>
<path opacity="0.1" d="M822.137 52.2028C819.38 53.6102 816.074 53.1668 813.288 51.8172C810.502 50.4677 808.112 48.3373 805.721 46.3033C804.638 45.2591 803.356 44.4428 801.952 43.9031C801.252 43.6536 800.494 43.6119 799.771 43.7829C799.047 43.9539 798.389 44.3304 797.874 44.867C797.22 45.8348 796.806 46.9455 796.669 48.106C797.171 47.8106 797.73 47.626 798.308 47.5644C798.887 47.5029 799.472 47.566 800.024 47.7493C801.428 48.2891 802.71 49.1053 803.793 50.1496C806.184 52.1835 808.613 54.3235 811.36 55.6635C814.108 57.0034 817.453 57.4565 820.209 56.0491C822.648 54.622 824.425 52.2908 825.155 49.5616C824.362 50.6596 823.331 51.5629 822.137 52.2028Z" fill="black"/>
</g>
<path d="M582.236 466.603C598.208 466.603 611.155 453.655 611.155 437.684C611.155 421.712 598.208 408.765 582.236 408.765C566.265 408.765 553.317 421.712 553.317 437.684C553.317 453.655 566.265 466.603 582.236 466.603Z" fill="#3F3D56"/>
<path opacity="0.1" d="M582.236 466.603C598.208 466.603 611.155 453.655 611.155 437.684C611.155 421.712 598.208 408.765 582.236 408.765C566.265 408.765 553.317 421.712 553.317 437.684C553.317 453.655 566.265 466.603 582.236 466.603Z" fill="black"/>
<path d="M582.236 455.997C592.351 455.997 600.551 447.797 600.551 437.682C600.551 427.567 592.351 419.367 582.236 419.367C572.12 419.367 563.92 427.567 563.92 437.682C563.92 447.797 572.12 455.997 582.236 455.997Z" fill="#65617D"/>
<path opacity="0.1" d="M582.236 455.997C592.351 455.997 600.551 447.797 600.551 437.682C600.551 427.567 592.351 419.367 582.236 419.367C572.12 419.367 563.92 427.567 563.92 437.682C563.92 447.797 572.12 455.997 582.236 455.997Z" fill="black"/>
<path d="M560.064 392.376L579.035 435.273C579.318 435.916 579.778 436.465 580.362 436.855C580.947 437.244 581.63 437.459 582.332 437.473C583.035 437.488 583.726 437.301 584.326 436.935C584.925 436.569 585.407 436.039 585.716 435.408L608.263 389.484L560.064 392.376Z" fill="#3F3D56"/>
<path opacity="0.1" d="M560.064 392.376L579.035 435.273C579.318 435.916 579.778 436.465 580.362 436.855C580.947 437.244 581.63 437.459 582.332 437.473C583.035 437.488 583.726 437.301 584.326 436.935C584.925 436.569 585.407 436.039 585.716 435.408L608.263 389.484L560.064 392.376Z" fill="black"/>
<path d="M401.974 466.603C417.945 466.603 430.893 453.655 430.893 437.684C430.893 421.712 417.945 408.765 401.974 408.765C386.002 408.765 373.055 421.712 373.055 437.684C373.055 453.655 386.002 466.603 401.974 466.603Z" fill="#3F3D56"/>
<path opacity="0.1" d="M401.974 466.603C417.945 466.603 430.893 453.655 430.893 437.684C430.893 421.712 417.945 408.765 401.974 408.765C386.002 408.765 373.055 421.712 373.055 437.684C373.055 453.655 386.002 466.603 401.974 466.603Z" fill="black"/>
<path d="M401.974 455.997C412.089 455.997 420.289 447.797 420.289 437.682C420.289 427.567 412.089 419.367 401.974 419.367C391.858 419.367 383.658 427.567 383.658 437.682C383.658 447.797 391.858 455.997 401.974 455.997Z" fill="#65617D"/>
<path opacity="0.1" d="M401.974 455.997C412.089 455.997 420.289 447.797 420.289 437.682C420.289 427.567 412.089 419.367 401.974 419.367C391.858 419.367 383.658 427.567 383.658 437.682C383.658 447.797 391.858 455.997 401.974 455.997Z" fill="black"/>
<path d="M379.803 392.376L398.774 435.273C399.056 435.916 399.517 436.465 400.101 436.855C400.685 437.244 401.368 437.459 402.071 437.473C402.773 437.488 403.464 437.301 404.064 436.935C404.663 436.569 405.146 436.039 405.454 435.408L428.001 389.484L379.803 392.376Z" fill="#3F3D56"/>
<path opacity="0.1" d="M379.803 392.376L398.774 435.273C399.056 435.916 399.517 436.465 400.101 436.855C400.685 437.244 401.368 437.459 402.071 437.473C402.773 437.488 403.464 437.301 404.064 436.935C404.663 436.569 405.146 436.039 405.454 435.408L428.001 389.484L379.803 392.376Z" fill="black"/>
<path d="M676.087 185.847C676.008 185.117 675.746 184.419 675.327 183.816C674.908 183.213 674.344 182.725 673.687 182.396C673.133 182.161 672.538 182.039 671.937 182.037C671.336 182.036 670.74 182.156 670.186 182.39C669.632 182.624 669.131 182.967 668.712 183.399C668.293 183.83 667.966 184.342 667.749 184.903L651.159 226.093L646.339 411.174H654.051L656.943 226.488L675.682 188.643C676.108 187.777 676.25 186.799 676.087 185.847Z" fill="#3F3D56"/>
<path d="M334.979 396.713L361.006 380.326L642.002 377.916L649.232 396.713H334.979Z" fill="#575A89"/>
<path d="M334.979 414.067V396.716L654.322 393.631L654.013 405.391H340.762V414.067H334.979Z" fill="#3F3D56"/>
<path d="M375.465 476.723C391.436 476.723 404.384 463.776 404.384 447.804C404.384 431.833 391.436 418.885 375.465 418.885C359.493 418.885 346.546 431.833 346.546 447.804C346.546 463.776 359.493 476.723 375.465 476.723Z" fill="#3F3D56"/>
<path d="M375.465 466.121C385.58 466.121 393.78 457.921 393.78 447.806C393.78 437.691 385.58 429.491 375.465 429.491C365.35 429.491 357.15 437.691 357.15 447.806C357.15 457.921 365.35 466.121 375.465 466.121Z" fill="#65617D"/>
<path d="M353.293 402.5L372.264 445.396C372.547 446.039 373.007 446.588 373.591 446.978C374.176 447.368 374.859 447.583 375.561 447.597C376.264 447.611 376.955 447.424 377.555 447.058C378.154 446.692 378.636 446.162 378.945 445.531L401.492 399.608L353.293 402.5Z" fill="#3F3D56"/>
<path d="M600.069 476.723C616.04 476.723 628.988 463.776 628.988 447.804C628.988 431.833 616.04 418.885 600.069 418.885C584.097 418.885 571.15 431.833 571.15 447.804C571.15 463.776 584.097 476.723 600.069 476.723Z" fill="#3F3D56"/>
<path d="M600.069 466.121C610.184 466.121 618.384 457.921 618.384 447.806C618.384 437.691 610.184 429.491 600.069 429.491C589.953 429.491 581.753 437.691 581.753 447.806C581.753 457.921 589.953 466.121 600.069 466.121Z" fill="#65617D"/>
<path d="M577.897 402.5L596.868 445.396C597.15 446.039 597.611 446.588 598.195 446.978C598.779 447.368 599.463 447.583 600.165 447.597C600.867 447.611 601.559 447.424 602.158 447.058C602.758 446.692 603.24 446.162 603.548 445.531L626.095 399.608L577.897 402.5Z" fill="#3F3D56"/>
<path d="M491.622 321.045H371.126V387.558H491.622V321.045Z" fill="#9C98A6"/>
<path opacity="0.1" d="M450.172 332.613H413.542V340.324H450.172V332.613Z" fill="black"/>
<path opacity="0.1" d="M445.593 333.576H418.12V339.36H445.593V333.576Z" fill="black"/>
<path d="M614.047 321.045H493.551V387.558H614.047V321.045Z" fill="#9C98A6"/>
<path opacity="0.1" d="M572.596 332.613H535.965V340.324H572.596V332.613Z" fill="black"/>
<path opacity="0.1" d="M568.016 333.576H540.543V339.36H568.016V333.576Z" fill="black"/>
<path d="M491.622 252.601H371.126V319.114H491.622V252.601Z" fill="#9C98A6"/>
<path opacity="0.1" d="M450.172 264.169H413.542V271.881H450.172V264.169Z" fill="black"/>
<path opacity="0.1" d="M445.593 265.133H418.12V270.916H445.593V265.133Z" fill="black"/>
<path d="M614.047 252.601H493.551V319.114H614.047V252.601Z" fill="#9C98A6"/>
<path opacity="0.1" d="M572.596 264.169H535.965V271.881H572.596V264.169Z" fill="black"/>
<path opacity="0.1" d="M568.016 265.133H540.543V270.916H568.016V265.133Z" fill="black"/>
<path d="M491.622 183.198H371.126V249.711H491.622V183.198Z" fill="#9C98A6"/>
<path opacity="0.1" d="M450.172 194.762H413.542V202.474H450.172V194.762Z" fill="black"/>
<path opacity="0.1" d="M445.593 195.729H418.12V201.513H445.593V195.729Z" fill="black"/>
<path d="M614.047 183.198H493.551V249.711H614.047V183.198Z" fill="#9C98A6"/>
<path opacity="0.1" d="M572.596 194.762H535.965V202.474H572.596V194.762Z" fill="black"/>
<path opacity="0.1" d="M568.016 195.729H540.543V201.513H568.016V195.729Z" fill="black"/>
<path d="M614.047 113.791H493.551V180.304H614.047V113.791Z" fill="#9C98A6"/>
<path opacity="0.1" d="M572.596 125.359H535.965V133.071H572.596V125.359Z" fill="black"/>
<path opacity="0.1" d="M568.016 126.322H540.543V132.106H568.016V126.322Z" fill="black"/>
<defs>
<linearGradient id="paint0_linear" x1="825.955" y1="465.774" x2="825.955" y2="0.0426945" gradientUnits="userSpaceOnUse">
<stop stop-color="#808080" stop-opacity="0.25"/>
<stop offset="0.54" stop-color="#808080" stop-opacity="0.12"/>
<stop offset="1" stop-color="#808080" stop-opacity="0.1"/>
</linearGradient>
</defs>
</svg>
